<?xml version="1.0"?>
<svg xmlns="http://www.w3.org/2000/svg" id="icons" viewBox="0 0 64 64"><path d="M56.06,32.75c-.4-.68-1.59-.38-2.28-.44l0-6h2.79c4.73-.12,4.75-7.18,0-7.31H8.63c-4.73.13-4.75,7.18,0,7.31h1.61l0,6c-.69.06-1.87-.24-2.28.44l-4.77,7A1,1,0,0,0,4,41.3H6.41c1.13,4.91,8.54,4.89,9.64,0h2.42a1,1,0,0,0,.82-1.57l-4.77-6.93c-.41-.68-1.59-.37-2.3-.44l0-6H31.59v6c-.7.06-1.88-.24-2.29.44l-4.77,6.93a1,1,0,0,0,.83,1.57h2.41c1.1,4.92,8.52,4.94,9.64,0h2.41a1,1,0,0,0,.83-1.56l-4.77-7c-.41-.68-1.58-.37-2.29-.44v-6H51.76l0,6c-.71.06-1.89-.24-2.3.44l-4.77,6.93a1,1,0,0,0,.82,1.57H48c1.1,4.92,8.51,4.94,9.64,0H60a1,1,0,0,0,.83-1.56ZM11.23,43A2.94,2.94,0,0,1,8.5,41.28H14A2.94,2.94,0,0,1,11.23,43Zm5.34-3.74-10.67,0,3.39-5h3.88Zm16,3.74a3,3,0,0,1-2.73-1.73h5.46A2.94,2.94,0,0,1,32.59,43Zm5.33-3.71-10.67,0,3.4-4.95h3.88ZM7.06,22.75A1.59,1.59,0,0,1,8.63,21H56.55a1.59,1.59,0,0,1,1.57,1.75,1.56,1.56,0,0,1-1.57,1.56H8.63A1.56,1.56,0,0,1,7.06,22.75ZM52.77,43A2.94,2.94,0,0,1,50,41.27H55.5A2.94,2.94,0,0,1,52.77,43Zm-3.93-3.74H47.43l3.4-4.95h3.88l3.39,5Z"/></svg>
