<svg id="Capa_1" enable-background="new 0 0 512 512" height="512" viewBox="0 0 512 512" width="512" xmlns="http://www.w3.org/2000/svg"><g><g><path d="m404.898 265.862c-5.522 0-10-4.477-10-10v.276c0-5.449 4.551-10 10-10s10 4.551 10 10v-.276c0 5.522-4.478 10-10 10z"/><path d="m275.276 512h-38.553c-17.752 0-32.721-13.293-34.817-30.921l-2.205-18.543c-17.453-4.745-34.191-11.684-49.92-20.695l-14.686 11.564c-13.947 10.983-33.932 9.798-46.485-2.755l-27.26-27.26c-12.552-12.554-13.736-32.538-2.754-46.485l11.564-14.685c-9.012-15.729-15.95-32.466-20.695-49.919l-18.543-2.206c-17.629-2.098-30.922-17.067-30.922-34.819v-38.553c0-17.752 13.293-32.721 30.921-34.817l18.543-2.206c4.745-17.453 11.684-34.19 20.695-49.919l-11.564-14.686c-10.982-13.947-9.798-33.932 2.754-46.484l27.261-27.261c12.554-12.552 32.537-13.738 46.485-2.754l14.686 11.564c15.729-9.012 32.467-15.95 49.92-20.695l2.205-18.542c2.097-17.63 17.066-30.923 34.818-30.923h38.553c17.752 0 32.721 13.293 34.817 30.921l2.206 18.543c17.452 4.745 34.19 11.684 49.919 20.695l14.685-11.564c13.947-10.983 33.933-9.798 46.484 2.754l27.262 27.261c12.552 12.554 13.736 32.538 2.754 46.485l-11.564 14.686c9.012 15.729 15.95 32.467 20.695 49.919l18.543 2.206c17.629 2.097 30.922 17.066 30.922 34.818v38.553c0 17.752-13.293 32.721-30.921 34.817l-18.543 2.206c-4.745 17.452-11.684 34.19-20.695 49.919l11.564 14.685c10.982 13.947 9.798 33.932-2.754 46.484l-27.261 27.261c-12.554 12.554-32.537 13.739-46.485 2.755l-14.685-11.564c-15.729 9.012-32.467 15.95-49.919 20.695l-2.206 18.543c-2.098 17.629-17.067 30.922-34.819 30.922zm-126.285-92.264c1.814 0 3.635.493 5.251 1.49 17.638 10.887 36.775 18.82 56.882 23.58 4.085.968 7.131 4.383 7.626 8.551l3.016 25.359c.901 7.572 7.332 13.283 14.958 13.283h38.553c7.626 0 14.057-5.711 14.958-13.284l3.017-25.359c.495-4.168 3.541-7.582 7.626-8.55 20.105-4.76 39.243-12.693 56.881-23.58 3.57-2.203 8.141-1.943 11.438.653l20.081 15.811c5.991 4.716 14.576 4.209 19.97-1.185l27.261-27.26c5.393-5.393 5.901-13.978 1.184-19.97l-15.811-20.081c-2.597-3.298-2.857-7.867-.653-11.438 10.887-17.638 18.82-36.775 23.58-56.881.968-4.085 4.382-7.131 8.55-7.626l25.359-3.017c7.573-.901 13.284-7.332 13.284-14.958v-38.553c0-7.626-5.711-14.057-13.284-14.958l-25.359-3.017c-4.168-.495-7.582-3.541-8.55-7.626-4.76-20.105-12.693-39.243-23.58-56.881-2.204-3.571-1.943-8.141.653-11.439l15.811-20.081c4.718-5.992 4.209-14.577-1.184-19.971l-27.261-27.26c-5.392-5.394-13.979-5.899-19.97-1.184l-20.082 15.816c-3.298 2.597-7.866 2.856-11.438.653-17.638-10.887-36.775-18.82-56.881-23.58-4.085-.968-7.131-4.382-7.626-8.55l-3.017-25.359c-.901-7.573-7.332-13.284-14.958-13.284h-38.553c-7.626 0-14.057 5.711-14.958 13.284l-3.016 25.358c-.495 4.168-3.541 7.583-7.626 8.551-20.106 4.76-39.244 12.693-56.882 23.58-3.569 2.203-8.141 1.943-11.439-.653l-20.081-15.812c-5.991-4.717-14.576-4.209-19.971 1.184l-27.26 27.261c-5.393 5.393-5.901 13.978-1.184 19.97l15.813 20.081c2.598 3.298 2.857 7.867.653 11.439-10.888 17.637-18.821 36.773-23.58 56.88-.967 4.084-4.382 7.131-8.55 7.626l-25.36 3.017c-7.571.901-13.282 7.332-13.282 14.958v38.553c0 7.626 5.711 14.057 13.284 14.958l25.36 3.017c4.168.495 7.583 3.542 8.55 7.626 4.759 20.106 12.692 39.243 23.58 56.88 2.204 3.572 1.944 8.142-.653 11.439l-15.813 20.081c-4.718 5.992-4.209 14.577 1.184 19.971l27.261 27.259c5.392 5.394 13.979 5.9 19.97 1.185l20.081-15.811c1.805-1.424 3.992-2.146 6.187-2.146zm107.009-4.839c-87.616 0-158.897-71.281-158.897-158.897s71.281-158.897 158.897-158.897c35.309 0 68.739 11.337 96.679 32.786 27.048 20.764 47.022 50.175 56.247 82.815 1.502 5.315-1.589 10.841-6.903 12.343-5.32 1.501-10.841-1.59-12.343-6.903-16.813-59.492-71.783-101.041-133.68-101.041-76.588 0-138.897 62.31-138.897 138.897s62.309 138.897 138.897 138.897c61.965 0 116.952-41.607 133.719-101.183 1.496-5.315 7.013-8.413 12.335-6.917 5.316 1.496 8.413 7.018 6.917 12.335-9.197 32.681-29.166 62.132-56.228 82.929-27.952 21.482-61.405 32.836-96.743 32.836z"/><g><g><path d="m217.03 360.082c-1.509 0-3.032-.341-4.451-1.047-4.07-2.025-6.262-6.542-5.335-10.992l14.978-71.893h-34.235c-3.468 0-6.688-1.796-8.509-4.746s-1.985-6.634-.432-9.734l52.23-104.231c1.695-3.384 5.156-5.521 8.94-5.521h67.493c3.629 0 6.973 1.966 8.737 5.137 1.766 3.171 1.674 7.049-.238 10.133l-31.284 50.456h39.089c3.923 0 7.482 2.293 9.104 5.864s1.007 7.762-1.574 10.716l-106.979 122.438c-1.948 2.23-4.715 3.42-7.534 3.42zm-12.847-103.932h30.337c3.01 0 5.859 1.355 7.759 3.691 1.898 2.335 2.645 5.401 2.031 8.348l-9.705 46.585 67.393-77.131h-35.039c-3.629 0-6.973-1.966-8.737-5.137-1.766-3.171-1.674-7.049.238-10.133l31.284-50.456h-43.353z"/></g></g></g></g></svg>