<svg id="Capa_1" enable-background="new 0 0 512 512" height="512" viewBox="0 0 512 512" width="512" xmlns="http://www.w3.org/2000/svg"><g><path d="m488.468 344.693h-50.221c1.034-2.647 1.608-5.523 1.608-8.532 0-6.19-2.406-11.827-6.328-16.032 3.922-4.206 6.328-9.842 6.328-16.032s-2.406-11.827-6.328-16.032c3.922-4.206 6.328-9.842 6.328-16.032s-2.406-11.827-6.328-16.032c3.922-4.206 6.328-9.842 6.328-16.032s-2.406-11.827-6.328-16.032c3.922-4.206 6.328-9.842 6.328-16.032s-2.406-11.827-6.328-16.032c3.922-4.206 6.328-9.842 6.328-16.032 0-3.009-.574-5.885-1.608-8.532h50.221c12.976 0 23.532-10.557 23.532-23.532 0-12.976-10.557-23.533-23.532-23.533h-400.807c-12.976 0-23.532 10.557-23.532 23.533s10.557 23.532 23.532 23.532h50.221c-1.034 2.647-1.608 5.523-1.608 8.532 0 6.19 2.406 11.827 6.328 16.032-3.922 4.206-6.328 9.842-6.328 16.032s2.406 11.827 6.328 16.032c-3.922 4.206-6.328 9.842-6.328 16.032s2.406 11.827 6.328 16.032c-3.922 4.206-6.328 9.842-6.328 16.032s2.406 11.827 6.328 16.032c-3.922 4.206-6.328 9.842-6.328 16.032 0 2.937.546 5.748 1.533 8.343-50.557-3.093-90.743-45.199-90.743-96.52 0-12.976-10.557-23.532-23.532-23.532s-23.532 10.556-23.532 23.531c0 56.993 33.334 106.346 81.529 129.589-10.011 2.705-17.4 11.862-17.4 22.717 0 12.976 10.557 23.533 23.532 23.533h400.807c12.976 0 23.532-10.557 23.532-23.533 0-12.975-10.557-23.532-23.532-23.532zm-337.194-8.532c0-4.705 3.828-8.532 8.532-8.532 4.142 0 7.5-3.358 7.5-7.5s-3.358-7.5-7.5-7.5c-4.705 0-8.532-3.828-8.532-8.532s3.828-8.532 8.532-8.532h256.516c4.705 0 8.532 3.828 8.532 8.532s-3.828 8.532-8.532 8.532h-224.451c-4.142 0-7.5 3.358-7.5 7.5s3.358 7.5 7.5 7.5h224.452c4.705 0 8.532 3.828 8.532 8.532s-3.828 8.532-8.532 8.532h-256.516c-4.705 0-8.533-3.827-8.533-8.532zm0-64.129c0-4.705 3.828-8.532 8.532-8.532h256.516c4.705 0 8.532 3.828 8.532 8.532s-3.828 8.532-8.532 8.532h-256.515c-4.705 0-8.533-3.827-8.533-8.532zm0-32.064c0-4.705 3.828-8.532 8.532-8.532h256.516c4.705 0 8.532 3.828 8.532 8.532s-3.828 8.532-8.532 8.532h-256.515c-4.705 0-8.533-3.828-8.533-8.532zm-72.145-96.194c0-4.705 3.828-8.533 8.532-8.533h400.807c4.705 0 8.532 3.828 8.532 8.533s-3.828 8.532-8.532 8.532h-400.807c-4.704.001-8.532-3.827-8.532-8.532zm337.194 23.533c4.705 0 8.532 3.828 8.532 8.532s-3.828 8.532-8.532 8.532h-40.081c-4.142 0-7.5 3.358-7.5 7.5s3.358 7.5 7.5 7.5h40.081c4.705 0 8.532 3.828 8.532 8.532s-3.828 8.532-8.532 8.532h-256.516c-4.705 0-8.532-3.828-8.532-8.532s3.828-8.532 8.532-8.532h184.371c4.142 0 7.5-3.358 7.5-7.5s-3.358-7.5-7.5-7.5h-184.371c-4.705 0-8.532-3.828-8.532-8.532s3.828-8.532 8.532-8.532zm-401.323 48.612c0-4.705 3.828-8.532 8.532-8.532s8.532 3.828 8.532 8.532c0 59.641 46.981 108.514 105.878 111.558-1.072 2.689-1.668 5.617-1.668 8.684 0 2.955.553 5.782 1.552 8.39-68.255-3.119-122.826-59.619-122.826-128.632zm473.468 160.839h-400.807c-4.705 0-8.532-3.828-8.532-8.533s3.828-8.532 8.532-8.532h400.807c4.705 0 8.532 3.828 8.532 8.532 0 4.706-3.828 8.533-8.532 8.533z"/></g></svg>